{"title":"Star Wars Droid Tales S01E01 Exit from Endor HDTV EN-SUB x264-W4","uid":12098979,"size":187349414,"categoryP":"video","categoryS":"tv_shows","magnet":"?xt=urn:btih:1e7ca359ae9eed5dc170f90fe6083a512fa41e3d&amp;dn=Star+Wars+Droid+Tales+S01E01+Exit+from+Endor+HDTV+EN-SUB+x264-W4&amp;tr=udp%3A%2F%2Ftracker.openbittorrent.com%3A80&amp;tr=udp%3A%2F%2Fopen.demonii.com%3A1337&amp;tr=udp%3A%2F%2Ftracker.coppersurfer.tk%3A6969&amp;tr=udp%3A%2F%2Fexodus.desync.com%3A6969","seeders":22,"leechers":2,"uploader":"Mulva1989","files":2,"time":1436246442,"description":"Star Wars Droid Tales S01E01 Exit from Endor HDTV EN-SUB x264-W4F\n\nScreens @ &lt;a href=&quot;\nhttps://yuq.me/users/50/321/f2UDaHSv0F.jpg&quot; rel=&quot;nofollow&quot; target=&quot;_NEW&quot;&gt;\nhttps://yuq.me/users/50/321/f2UDaHSv0F.jpg&lt;/a&gt; &lt;a href=&quot;\nhttps://yuq.me/users/50/321/AvjRDh6xZS.jpg&quot; rel=&quot;nofollow&quot; target=&quot;_NEW&quot;&gt;\nhttps://yuq.me/users/50/321/AvjRDh6xZS.jpg&lt;/a&gt;\n\nFormat : MPEG-4\nFormat profile : Base Media\nCodec ID : isom\nFile size : 179 MiB\nDuration : 22mn 58s\nOverall bit rate mode : Variable\nOverall bit rate : 1 088 Kbps\nEncoded date : UTC 2015-07-07 02:57:03\nTagged date : UTC 2015-07-07 02:57:03\n\nVideo\nID : 1\nFormat : AVC\nFormat/Info : Advanced Video Codec\nFormat profile : &lt;a class=&quot;__cf_email__&quot; href=&quot;/cdn-cgi/l/email-protection&quot; data-cfemail=&quot;8fc7e6e8e7cfc3bca1be&quot;&gt;[email&amp;#160;protected]&lt;/a&gt;&lt;script data-cfhash='f9e31' type=&quot;text/javascript&quot;&gt;\n/* &lt;![CDATA[ */!function(){try{var t=&quot;currentScript&quot;in document?document.currentScript:function(){for(var t=document.getElementsByTagName(&quot;script&quot;),e=t.length;e--;)if(t[e].getAttribute(&quot;data-cfhash&quot;))return t[e]}();if(t&amp;&amp;t.previousSibling){var e,r,n,i,c=t.previousSibling,a=c.getAttribute(&quot;data-cfemail&quot;);if(a){for(e=&quot;&quot;,r=parseInt(a.substr(0,2),16),n=2;a.length-n;n+=2)i=parseInt(a.substr(n,2),16)^r,e+=String.fromCharCode(i);e=document.createTextNode(e),c.parentNode.replaceChild(e,c)}t.parentNode.removeChild(t);}}catch(u){}}()/* ]]&gt; */&lt;/script&gt;\nFormat settings, CABAC : Yes\nFormat settings, ReFrames : 10 frames\nCodec ID : avc1\nCodec ID/Info : Advanced Video Coding\nDuration : 22mn 58s\nBit rate : 954 Kbps\nMaximum bit rate : 5 446 Kbps\nWidth : 720 pixels\nHeight : 404 pixels\nDisplay aspect ratio : 16:9\nFrame rate mode : Constant\nFrame rate : 23.976 fps\nColor space : YUV\nChroma subsampling : 4:2:0\nBit depth : 8 bits\nScan type : Progressive\nBits/(Pixel*Frame) : 0.137\nStream size : 157 MiB (88%)\nWriting library : x264 core 146 r2538 121396c\nEncoding settings : cabac=1 / ref=10 / deblock=1:1:1 / analyse=0x3:0x113 / me=umh / subme=8 / psy=1 / psy_rd=0.40:0.00 / mixed_ref=1 / me_range=16 / chroma_me=1 / trellis=1 / 8x8dct=1 / cqm=0 / deadzone=21,11 / fast_pskip=1 / chroma_qp_offset=-2 / threads=12 / lookahead_threads=3 / sliced_threads=0 / nr=0 / decimate=1 / interlaced=0 / bluray_compat=0 / constrained_intra=0 / bframes=5 / b_pyramid=2 / b_adapt=2 / b_bias=0 / direct=3 / weightb=1 / open_gop=0 / weightp=2 / keyint=250 / keyint_min=25 / scenecut=40 / intra_refresh=0 / rc_lookahead=50 / rc=crf / mbtree=1 / crf=19.0 / qcomp=0.60 / qpmin=0 / qpmax=69 / qpstep=4 / ip_ratio=1.40 / aq=1:0.60\nEncoded date : UTC 2015-07-07 02:57:03\nTagged date : UTC 2015-07-07 02:57:22\nMatrix coefficients : BT.709\nColor range : Limited\n\nAudio\nID : 2\nFormat : AAC\nFormat/Info : Advanced Audio Codec\nFormat profile : LC\nCodec ID : 40\nDuration : 22mn 58s\nBit rate mode : Variable\nBit rate : 129 Kbps\nMaximum bit rate : 155 Kbps\nChannel(s) : 2 channels\nChannel positions : Front: L R\nSampling rate : 48.0 KHz\nCompression mode : Lossy\nStream size : 21.2 MiB (12%)\nLanguage : English\nEncoded date : UTC 2015-07-07 02:57:21\nTagged date : UTC 2015-07-07 02:57:22\n\nText\nID : 3\nFormat : Timed Text\nCodec ID : tx3g\nDuration : 22mn 34s\nBit rate mode : Variable\nBit rate : 121 bps\nStream size : 20.1 KiB (0%)\nLanguage : English\nEncoded date : UTC 2015-07-07 02:57:22\nTagged date : UTC 2015-07-07 02:57:22","torrent":{"xt":"urn:btih:1e7ca359ae9eed5dc170f90fe6083a512fa41e3d","amp;dn":"Star+Wars+Droid+Tales+S01E01+Exit+from+Endor+HDTV+EN-SUB+x264-W4","amp;tr":["udp%3A%2F%2Ftracker.openbittorrent.com%3A80","udp%3A%2F%2Fopen.demonii.com%3A1337","udp%3A%2F%2Ftracker.coppersurfer.tk%3A6969","udp%3A%2F%2Fexodus.desync.com%3A6969"],"infoHash":"1e7ca359ae9eed5dc170f90fe6083a512fa41e3d","infoHashBuffer":{"type":"Buffer","data":[30,124,163,89,174,158,237,93,193,112,249,15,230,8,58,81,47,164,30,61]},"announce":[],"urlList":[]}}